<svg xmlns="http://www.w3.org/2000/svg" width="1440" height="310" version="1.1"
    preserveAspectRatio="none">
    <g>
        <title>Layer 1</title>
        <g id="svg_1">
            <path
                d="m1484.99918,311.00082l-1512,0l0,-276.03q61.89,-58.11 120,3.78q54.22,-17.78 72,36.44q59.68,-12.32 72,47.36q48.2,-71.8 120,-23.59q24.79,-47.21 72,-22.42q16.47,-55.53 72,-39.05q41.76,-30.24 72,11.52q86.95,-33.05 120,53.9q54.7,-65.29 120,-10.59q38.56,-81.44 120,-42.89q45.38,-26.62 72,18.77q41.63,-78.36 120,-36.73q91.85,-28.15 120,63.69q50.46,-69.53 120,-19.07q76.65,-43.35 120,33.3l0,201.61z"
                fill="rgba(254, 230, 234, 0.25)" id="svg_2" />
            <path
                d="m1436.99918,311.00082l-1464,0l0,-207.38q61.76,-58.24 120,3.52q85.13,-34.88 120,50.25q49.43,-70.58 120,-21.15q64.86,-7.14 72,57.72q24.62,-47.39 72,-22.77q21.85,-50.15 72,-28.3q19.25,-52.76 72,-33.51q44.62,-27.38 72,17.24q86.4,-33.6 120,52.8q43.89,-28.11 72,15.79q11.6,-60.41 72,-48.81q66.8,-53.2 120,13.6q68.11,-51.89 120,16.22q37.45,-82.54 120,-45.09q66.02,-53.98 120,12.04l0,167.83z"
                fill="rgba(254, 230, 234, 0.5)" id="svg_3" />
            <path
                d="m1460.99918,311.00082l-1488,0l0,-70.32q42.33,-77.67 120,-35.33q47.88,-24.11 72,23.77q7.46,-64.54 72,-57.08q70.63,-49.36 120,21.27q60.19,-11.81 72,48.38q42.22,-29.78 72,12.45q0.68,-71.32 72,-70.64q54.73,-65.27 120,-10.55q96.49,-23.51 120,72.97q42.65,-77.35 120,-34.7q88.03,-31.97 120,56.07q23.27,-48.73 72,-25.45q20.67,-51.33 72,-30.65q19.36,-52.65 72,-33.29q42.37,-29.64 72,12.73q83.59,-36.41 120,47.18l0,73.19z"
                fill="rgba(254, 230, 234, 0.75)" id="svg_4" />
            <path
                d="m1460.99918,311.00082l-1488,0l0,-64.81q73.9,1.9 72,75.79q67,-53 120,14q36.57,-83.43 120,-46.86q22,-50 72,-28q91.81,-28.19 120,63.63q48.96,-71.04 120,-22.08q54.9,-65.1 120,-10.21q56.65,-15.34 72,41.31q9.69,-62.31 72,-52.62q18.66,-53.34 72,-34.68q45.99,-26.01 72,19.98q45.5,-26.5 72,19q81.45,-38.55 120,42.91q26.43,-45.56 72,-19.13q30.57,-41.43 72,-10.86q42.26,-77.74 120,-35.48l0,48.11z"
                fill="rgba(254, 230, 234, 1)" id="svg_5" />
        </g>
    </g>

</svg>