<svg xmlns="http://www.w3.org/2000/svg" version="1.1" xmlns:xlink="http://www.w3.org/1999/xlink"
    xmlns:svgjs="http://svgjs.com/svgjs" preserveAspectRatio="none"
    viewBox="0 0 1440 560">
    <g>
        <path
            d="M1512 560L0 560 L0 283.97Q61.89 225.86, 120 287.75Q174.22 269.97, 192 324.19Q251.68 311.87, 264
    371.55Q312.2 299.75, 384 347.96Q408.79 300.75, 456 325.54Q472.47 270.01, 528 286.49Q569.76
    256.25, 600 298.01Q686.95 264.96, 720 351.91Q774.7 286.62, 840 341.32Q878.56 259.88, 960
    298.43Q1005.38 271.81, 1032 317.2Q1073.63 238.84, 1152 280.47Q1243.85 252.32, 1272
    344.16Q1322.46 274.63, 1392 325.09Q1468.65 281.74, 1512 358.39z"
            fill="rgba(254, 230, 234, 0.25)"></path>
        <path
            d="M1464 560L0 560 L0 352.62Q61.76 294.38, 120 356.14Q205.13 321.26, 240 406.39Q289.43 335.81, 360
        385.24Q424.86 378.1, 432 442.96Q456.62 395.57, 504 420.19Q525.85 370.04, 576 391.89Q595.25
        339.13, 648 358.38Q692.62 331, 720 375.62Q806.4 342.02, 840 428.42Q883.89 400.31, 912
        444.21Q923.6 383.8, 984 395.4Q1050.8 342.2, 1104 409Q1172.11 357.11, 1224 425.22Q1261.45
        342.68, 1344 380.13Q1410.02 326.15, 1464 392.17z"
            fill="rgba(254, 230, 234, 0.5)"></path>
        <path
            d="M1488 560L0 560 L0 489.68Q42.33 412.01, 120 454.35Q167.88 430.24, 192 478.12Q199.46 413.58, 264
        421.04Q334.63 371.68, 384 442.31Q444.19 430.5, 456 490.69Q498.22 460.91, 528 503.14Q528.68
        431.82, 600 432.5Q654.73 367.23, 720 421.95Q816.49 398.44, 840 494.92Q882.65 417.57, 960
        460.22Q1048.03 428.25, 1080 516.29Q1103.27 467.56, 1152 490.84Q1172.67 439.51, 1224
        460.19Q1243.36 407.54, 1296 426.9Q1338.37 397.26, 1368 439.63Q1451.59 403.22, 1488 486.81z"
            fill="rgba(254, 230, 234, 0.75)"></path>
        <path
            d="M1488 560L0 560 L0 495.19Q73.9 497.09, 72 570.98Q139 517.98, 192 584.98Q228.57 501.55, 312 538.12Q334 488.12, 384 510.12Q475.81 481.93, 504 573.75Q552.96 502.71, 624 551.67Q678.9 486.57, 744 541.46Q800.65 526.12, 816 582.77Q825.69 520.46, 888 530.15Q906.66 476.81, 960 495.47Q1005.99 469.46, 1032 515.45Q1077.5 488.95, 1104 534.45Q1185.45 495.9, 1224 577.36Q1250.43 531.8, 1296 558.23Q1326.57 516.8, 1368 547.37Q1410.26 469.63, 1488 511.89z"
            fill="rgba(254, 230, 234, 1)"></path>
    </g>
</svg>