<?xml version="1.0" encoding="UTF-8" standalone="no"?>
<svg
   width="700pt"
   height="700pt"
   version="1.1"
   viewBox="0 0 700 700"
   id="svg262"
   sodipodi:docname="estacionamiento.svg"
   inkscape:version="1.2.2 (b0a84865, 2022-12-01)"
   xmlns:inkscape="http://www.inkscape.org/namespaces/inkscape"
   xmlns:sodipodi="http://sodipodi.sourceforge.net/DTD/sodipodi-0.dtd"
   xmlns="http://www.w3.org/2000/svg"
   xmlns:svg="http://www.w3.org/2000/svg">
  <sodipodi:namedview
     id="namedview264"
     pagecolor="#ffffff"
     bordercolor="#000000"
     borderopacity="0.25"
     inkscape:showpageshadow="2"
     inkscape:pageopacity="0.0"
     inkscape:pagecheckerboard="0"
     inkscape:deskcolor="#d1d1d1"
     inkscape:document-units="pt"
     showgrid="false"
     inkscape:zoom="0.25285714"
     inkscape:cx="373.72882"
     inkscape:cy="401.41243"
     inkscape:window-width="1571"
     inkscape:window-height="769"
     inkscape:window-x="0"
     inkscape:window-y="38"
     inkscape:window-maximized="0"
     inkscape:current-layer="svg262" />
  <defs
     id="defs198">
    <symbol
       id="m"
       overflow="visible">
      <path
         d="m29.312-1.75c-1.5117 0.78125-3.0898 1.3711-4.7344 1.7656-1.6367 0.40625-3.3398 0.60938-5.1094 0.60938-5.3125 0-9.5273-1.4844-12.641-4.4531-3.1055-2.9688-4.6562-7-4.6562-12.094s1.5508-9.125 4.6562-12.094c3.1133-2.9688 7.3281-4.4531 12.641-4.4531 1.7695 0 3.4727 0.19922 5.1094 0.59375 1.6445 0.39844 3.2227 0.99219 4.7344 1.7812v6.5938c-1.5312-1.0391-3.0391-1.8008-4.5156-2.2812-1.4805-0.48828-3.0391-0.73438-4.6719-0.73438-2.9375 0-5.2461 0.94531-6.9219 2.8281-1.6797 1.875-2.5156 4.4648-2.5156 7.7656 0 3.293 0.83594 5.8828 2.5156 7.7656 1.6758 1.875 3.9844 2.8125 6.9219 2.8125 1.6328 0 3.1914-0.23828 4.6719-0.71875 1.4766-0.48828 2.9844-1.2539 4.5156-2.2969z"
         id="path159" />
    </symbol>
    <symbol
       id="d"
       overflow="visible">
      <path
         d="m21.453-17.406c-0.67969-0.3125-1.3516-0.53906-2.0156-0.6875-0.65625-0.15625-1.3203-0.23438-1.9844-0.23438-1.9688 0-3.4844 0.63281-4.5469 1.8906-1.0547 1.2617-1.5781 3.0703-1.5781 5.4219v11.016h-7.6562v-23.922h7.6562v3.9219c0.97656-1.5625 2.1016-2.7031 3.375-3.4219 1.2812-0.71875 2.8125-1.0781 4.5938-1.0781 0.25 0 0.52344 0.011719 0.82812 0.03125 0.30078 0.023438 0.73438 0.070312 1.2969 0.14062z"
         id="path162" />
    </symbol>
    <symbol
       id="a"
       overflow="visible">
      <path
         d="m27.562-12.031v2.1875h-17.891c0.1875 1.793 0.83203 3.1367 1.9375 4.0312 1.1133 0.89844 2.6719 1.3438 4.6719 1.3438 1.6016 0 3.25-0.23438 4.9375-0.70312 1.6875-0.47656 3.4219-1.2031 5.2031-2.1719v5.8906c-1.8047 0.6875-3.6094 1.2031-5.4219 1.5469-1.8125 0.35156-3.6211 0.53125-5.4219 0.53125-4.3359 0-7.7031-1.0977-10.109-3.2969-2.3984-2.207-3.5938-5.2969-3.5938-9.2656 0-3.9062 1.1758-6.9727 3.5312-9.2031 2.3633-2.2383 5.6094-3.3594 9.7344-3.3594 3.7578 0 6.7695 1.1367 9.0312 3.4062 2.2578 2.2617 3.3906 5.2812 3.3906 9.0625zm-7.8594-2.5312c0-1.457-0.42969-2.6289-1.2812-3.5156-0.84375-0.89453-1.9492-1.3438-3.3125-1.3438-1.4922 0-2.6992 0.41797-3.625 1.25-0.91797 0.83594-1.4922 2.0391-1.7188 3.6094z"
         id="path165" />
    </symbol>
    <symbol
       id="c"
       overflow="visible">
      <path
         d="m14.391-10.766c-1.5938 0-2.793 0.27344-3.5938 0.8125-0.80469 0.54297-1.2031 1.3398-1.2031 2.3906 0 0.96875 0.32031 1.7305 0.96875 2.2812 0.64453 0.54297 1.5469 0.8125 2.7031 0.8125 1.4375 0 2.6445-0.51562 3.625-1.5469 0.98828-1.0312 1.4844-2.3203 1.4844-3.875v-0.875zm11.688-2.8906v13.656h-7.7031v-3.5469c-1.0312 1.4492-2.1875 2.5078-3.4688 3.1719s-2.8398 1-4.6719 1c-2.4805 0-4.4961-0.72266-6.0469-2.1719-1.543-1.4453-2.3125-3.3203-2.3125-5.625 0-2.8125 0.96094-4.8672 2.8906-6.1719 1.9375-1.3125 4.9688-1.9688 9.0938-1.9688h4.5156v-0.60938c0-1.207-0.48047-2.0938-1.4375-2.6562-0.94922-0.5625-2.4375-0.84375-4.4688-0.84375-1.6367 0-3.1562 0.16797-4.5625 0.5-1.4062 0.32422-2.7188 0.8125-3.9375 1.4688v-5.8281c1.6445-0.40625 3.2891-0.70703 4.9375-0.90625 1.6562-0.20703 3.3047-0.3125 4.9531-0.3125 4.3203 0 7.4375 0.85547 9.3438 2.5625 1.9141 1.6992 2.875 4.4609 2.875 8.2812z"
         id="path168" />
    </symbol>
    <symbol
       id="b"
       overflow="visible">
      <path
         d="m12.031-30.719v6.7969h7.875v5.4688h-7.875v10.141c0 1.1172 0.21875 1.8711 0.65625 2.2656 0.4375 0.38672 1.3125 0.57812 2.625 0.57812h3.9375v5.4688h-6.5625c-3.0234 0-5.1641-0.62891-6.4219-1.8906-1.2617-1.2578-1.8906-3.3984-1.8906-6.4219v-10.141h-3.7969v-5.4688h3.7969v-6.7969z"
         id="path171" />
    </symbol>
    <symbol
       id="i"
       overflow="visible">
      <path
         d="m19.953-20.422v-12.812h7.6875v33.234h-7.6875v-3.4531c-1.0547 1.4062-2.2148 2.4375-3.4844 3.0938-1.2734 0.65625-2.7422 0.98438-4.4062 0.98438-2.9492 0-5.3711-1.1719-7.2656-3.5156-1.8867-2.3438-2.8281-5.3594-2.8281-9.0469s0.94141-6.7031 2.8281-9.0469c1.8945-2.3438 4.3164-3.5156 7.2656-3.5156 1.6562 0 3.1172 0.33594 4.3906 1 1.2812 0.65625 2.4453 1.6836 3.5 3.0781zm-5.0469 15.484c1.6445 0 2.8945-0.59766 3.75-1.7969 0.86328-1.1953 1.2969-2.9297 1.2969-5.2031 0-2.2812-0.43359-4.0195-1.2969-5.2188-0.85547-1.1953-2.1055-1.7969-3.75-1.7969-1.625 0-2.8711 0.60156-3.7344 1.7969-0.85547 1.1992-1.2812 2.9375-1.2812 5.2188 0 2.2734 0.42578 4.0078 1.2812 5.2031 0.86328 1.1992 2.1094 1.7969 3.7344 1.7969z"
         id="path174" />
    </symbol>
    <symbol
       id="h"
       overflow="visible">
      <path
         d="m16.406-4.9375c1.6328 0 2.8828-0.59766 3.75-1.7969 0.86328-1.1953 1.2969-2.9297 1.2969-5.2031 0-2.2812-0.43359-4.0195-1.2969-5.2188-0.86719-1.1953-2.1172-1.7969-3.75-1.7969-1.6367 0-2.8906 0.60547-3.7656 1.8125-0.875 1.1992-1.3125 2.9336-1.3125 5.2031 0 2.2617 0.4375 3.9961 1.3125 5.2031 0.875 1.1992 2.1289 1.7969 3.7656 1.7969zm-5.0781-15.484c1.0508-1.3945 2.2188-2.4219 3.5-3.0781 1.2812-0.66406 2.7539-1 4.4219-1 2.9453 0 5.3672 1.1719 7.2656 3.5156 1.8945 2.3438 2.8438 5.3594 2.8438 9.0469s-0.94922 6.7031-2.8438 9.0469c-1.8984 2.3438-4.3203 3.5156-7.2656 3.5156-1.668 0-3.1406-0.33594-4.4219-1s-2.4492-1.6914-3.5-3.0781v3.4531h-7.6562v-33.234h7.6562z"
         id="path177" />
    </symbol>
    <symbol
       id="g"
       overflow="visible">
      <path
         d="m0.53125-23.922h7.6562l6.4219 16.234 5.4688-16.234h7.6562l-10.062 26.188c-1.0117 2.6641-2.1953 4.5234-3.5469 5.5781-1.3438 1.0625-3.1211 1.5938-5.3281 1.5938h-4.4219v-5.0156h2.3906c1.3008 0 2.2422-0.21094 2.8281-0.625 0.59375-0.40625 1.0547-1.1484 1.3906-2.2188l0.20312-0.65625z"
         id="path180" />
    </symbol>
    <symbol
       id="f"
       overflow="visible">
      <path
         d="m0.21875-31.891h8.2656l8.4531 23.531 8.4375-23.531h8.2656l-11.812 31.891h-9.7969z"
         id="path183" />
    </symbol>
    <symbol
       id="e"
       overflow="visible">
      <path
         d="m23-23.172v6.2344c-1.0312-0.71875-2.0742-1.2422-3.125-1.5781-1.043-0.34375-2.125-0.51562-3.25-0.51562-2.1367 0-3.8047 0.625-5 1.875-1.1875 1.2422-1.7812 2.9805-1.7812 5.2188 0 2.2305 0.59375 3.9688 1.7812 5.2188 1.1953 1.25 2.8633 1.875 5 1.875 1.1953 0 2.332-0.17578 3.4062-0.53125 1.0703-0.36328 2.0625-0.89453 2.9688-1.5938v6.2656c-1.1875 0.4375-2.4023 0.76562-3.6406 0.98438-1.2305 0.22656-2.4648 0.34375-3.7031 0.34375-4.3125 0-7.6875-1.1094-10.125-3.3281s-3.6562-5.2969-3.6562-9.2344c0-3.9453 1.2188-7.0234 3.6562-9.2344 2.4375-2.2188 5.8125-3.3281 10.125-3.3281 1.25 0 2.4844 0.10938 3.7031 0.32812s2.4297 0.55469 3.6406 1z"
         id="path186" />
    </symbol>
    <symbol
       id="l"
       overflow="visible">
      <path
         d="m15.062-19.031c-1.6992 0-2.9961 0.60938-3.8906 1.8281-0.88672 1.2188-1.3281 2.9766-1.3281 5.2656 0 2.293 0.44141 4.0469 1.3281 5.2656 0.89453 1.2188 2.1914 1.8281 3.8906 1.8281 1.6641 0 2.9375-0.60938 3.8125-1.8281 0.88281-1.2188 1.3281-2.9727 1.3281-5.2656 0-2.2891-0.44531-4.0469-1.3281-5.2656-0.875-1.2188-2.1484-1.8281-3.8125-1.8281zm0-5.4688c4.1133 0 7.3281 1.1094 9.6406 3.3281s3.4688 5.2969 3.4688 9.2344c0 3.9297-1.1562 7.0078-3.4688 9.2344-2.3125 2.2188-5.5273 3.3281-9.6406 3.3281-4.1367 0-7.3711-1.1094-9.7031-3.3281-2.3242-2.2266-3.4844-5.3047-3.4844-9.2344 0-3.9375 1.1602-7.0156 3.4844-9.2344 2.332-2.2188 5.5664-3.3281 9.7031-3.3281z"
         id="path189" />
    </symbol>
    <symbol
       id="k"
       overflow="visible">
      <path
         d="m4.0156-31.891h13.656c4.0508 0 7.1602 0.90234 9.3281 2.7031 2.1758 1.8047 3.2656 4.3711 3.2656 7.7031 0 3.3438-1.0898 5.918-3.2656 7.7188-2.168 1.8047-5.2773 2.7031-9.3281 2.7031h-5.4375v11.062h-8.2188zm8.2188 5.9531v8.9062h4.5625c1.5938 0 2.8203-0.38281 3.6875-1.1562 0.875-0.78125 1.3125-1.8789 1.3125-3.2969 0-1.4258-0.4375-2.5234-1.3125-3.2969-0.86719-0.76953-2.0938-1.1562-3.6875-1.1562z"
         id="path192" />
    </symbol>
    <symbol
       id="j"
       overflow="visible">
      <path
         d="m3.6719-33.234h7.6562v33.234h-7.6562z"
         id="path195" />
    </symbol>
  </defs>
  <g
     id="g260"
     transform="translate(-0.02789224,70.00015)">
    <path
       d="m 500.59,468.04 c -6.0703,-0.0234 -11.891,-2.4492 -16.184,-6.7422 -4.293,-4.293 -6.7148,-10.113 -6.7383,-16.184 v -35 c 0,-4.832 3.9141,-8.75 8.75,-8.75 2.3203,0 4.543,0.92188 6.1875,2.5625 1.6406,1.6406 2.5625,3.8672 2.5625,6.1875 v 35 c 0.0234,1.4531 0.62109,2.8359 1.6602,3.8477 0.99219,1.0117 2.3477,1.582 3.7617,1.5781 h 41.391 c 3.0586,-0.0508 5.5117,-2.543 5.5117,-5.6016 v -41.125 c 0,-4.832 3.918,-8.75 8.75,-8.75 2.3203,0 4.5469,0.92188 6.1875,2.5625 1.6406,1.64062 2.5625,3.8672 2.5625,6.1875 v 41.211 c -0.043,6 -2.4102,11.75 -6.6055,16.043 -4.1914,4.293 -9.8867,6.7891 -15.883,6.9727 z"
       id="path200" />
    <path
       d="m 158.02,468.04 c -6.0703,-0.0234 -11.891,-2.4492 -16.184,-6.7422 -4.293,-4.293 -6.7148,-10.113 -6.7383,-16.184 v -40.863 c 0,-4.832 3.9141,-8.75 8.75,-8.75 2.3203,0 4.543,0.92188 6.1875,2.5625 1.6406,1.6406 2.5625,3.8672 2.5625,6.1875 v 40.863 c 0.0234,1.4531 0.62109,2.8359 1.6602,3.8477 1.0078,1.043 2.4023,1.6133 3.8516,1.5781 h 41.301 c 3.0586,-0.0508 5.5117,-2.543 5.5117,-5.6016 v -34.301 c 0,-4.832 3.918,-8.75 8.75,-8.75 2.3203,0 4.5469,0.92188 6.1875,2.5625 1.6406,1.64062 2.5625,3.8672 2.5625,6.1875 v 34.301 c -0.0234,6.0898 -2.4414,11.926 -6.7305,16.246 -4.2891,4.3242 -10.105,6.7852 -16.195,6.8555 z"
       id="path202" />
    <path
       d="m 545.21,228.38 c -4.832,0.12109 -8.8477,-3.6992 -8.9688,-8.5312 -0.12109,-4.832 3.6992,-8.8477 8.5312,-8.9688 29.574,-1.3984 51.801,-6.6484 57.836,-13.648 h 0.004 c 0.80469,-0.69922 1.2266,-1.7383 1.1367,-2.8008 -0.10547,-1.918 -1.0703,-3.6836 -2.625,-4.8125 -5.7734,-4.8984 -20.648,-6.9141 -38.852,-5.25 v 4.8125 c -0.0195,5.5625 -2.2422,10.891 -6.1758,14.824 -3.9336,3.933 -9.2617,6.1523 -14.824,6.1758 h -4.8984 c -4.832,0 -8.75,-3.918 -8.75,-8.75 0,-4.832 3.918,-8.75 8.75,-8.75 h 4.8984 c 0.92578,-0.004 1.8125,-0.38281 2.4531,-1.0508 0.68359,-0.62891 1.0664,-1.5195 1.0469,-2.4492 v -5.4258 c -0.0352,-4.2031 1.5078,-8.2617 4.3281,-11.375 2.8242,-3.1133 6.7148,-5.0508 10.898,-5.4258 16.977,-1.5742 39.898,-1.2266 52.5,9.1875 5.0742,4.1836 8.2344,10.246 8.75,16.801 0.51172,5.793 -1.4258,11.535 -5.3359,15.836 -12.25,13.914 -44.887,18.375 -70,19.602 z"
       id="path204" />
    <path
       d="m 154.88,228.38 c -25.375,-1.2266 -58.102,-5.6875 -70,-19.688 -4.2031,-4.1289 -6.4336,-9.8633 -6.125,-15.75 0.54688,-6.5469 3.6992,-12.598 8.75,-16.801 12.512,-10.414 35,-10.762 52.5,-9.1875 4.1758,0.39453 8.0547,2.3359 10.875,5.4453 2.8164,3.1094 4.3672,7.1602 4.3516,11.355 v 5.4258 c -0.004,1.8984 1.5117,3.4531 3.4102,3.5 h 4.8125 c 4.832,0 8.75,3.918 8.75,8.75 0,4.832 -3.918,8.75 -8.75,8.75 h -4.8125 c -5.5547,-0.0234 -10.871,-2.2461 -14.793,-6.1836 -3.918,-3.9336 -6.1172,-9.2617 -6.1172,-14.816 v -4.8125 c -18.199,-1.6641 -33.074,0 -38.852,5.25 -1.5547,1.1289 -2.5195,2.8945 -2.625,4.8125 -0.08984,1.0625 0.33203,2.1016 1.1367,2.8008 6.0391,7 28.262,12.25 57.836,13.648 h 0.004 c 2.3203,0 4.543,0.92188 6.1875,2.5625 1.6406,1.6406 2.5625,3.8672 2.5625,6.1875 0,2.3828 -0.96875,4.6641 -2.6875,6.3125 -1.7188,1.6523 -4.0352,2.5312 -6.4141,2.4375 z"
       id="path206" />
    <path
       d="m 163.01,419.48 c -8.9023,0.0391 -17.562,-2.875 -24.629,-8.293 -7.0625,-5.418 -12.125,-13.027 -14.395,-21.633 -5.8398,-21.488 -9.2734,-43.555 -10.238,-65.801 -0.48047,-9.1211 -0.48047,-18.266 0,-27.387 1.2461,-14.973 5.6914,-29.504 13.039,-42.613 l 23.449,-43.75 c 12.512,-28.961 44.449,-98.789 63.086,-106.93 5.25,-2.2734 18.551,-5.6875 73.062,-8.75 26.863,-1.3984 52.5,-2.1016 62.648,-2.3633 h 0.96484 c 27.477,0.52344 118.48,2.8008 135.89,10.324 19.25,8.75 53.727,84.352 63.875,107.36 l 23.273,43.051 h 0.004 c 7.207,13.258 11.477,27.91 12.512,42.965 0.57422,9.8203 0.57422,19.664 0,29.484 -0.90625,21.492 -4.1328,42.82 -9.625,63.613 -2.2969,8.6406 -7.3906,16.277 -14.48,21.723 -7.0898,5.4414 -15.781,8.3906 -24.719,8.3789 l -373.89,0.61328 z M 350,109.46 c -9.9766,0 -35.699,0.96094 -62.387,2.3633 -53.461,2.7109 -64.75,6.0391 -66.852,7 -9.1875,4.4609 -35.438,54.602 -54.512,98.523 l -24.062,44.453 c -5.9648,11.027 -9.5117,23.195 -10.414,35.699 -0.43359,8.5391 -0.43359,17.098 0,25.637 0.73047,20.895 3.7852,41.645 9.1016,61.863 1.3125,4.8633 4.1953,9.1523 8.1992,12.207 4,3.0547 8.9023,4.6992 13.938,4.6797 l 373.98,-0.61328 c 5.0625,0.0352 9.9922,-1.6133 14.016,-4.6875 4.0195,-3.0703 6.9102,-7.3945 8.207,-12.285 5.0234,-19.613 7.957,-39.707 8.75,-59.938 0.57422,-9.1484 0.57422,-18.328 0,-27.477 -0.84766,-12.566 -4.3984,-24.805 -10.41,-35.875 l -23.625,-43.75 c -19.602,-44.539 -46.023,-94.586 -55.125,-99.051 -9.1016,-4.4609 -72.625,-7.6992 -128.8,-8.75 z"
       id="path208" />
    <path
       d="m 358.75,336.61 c -6.9141,0 -13.824,0 -20.648,-0.52344 l -62.039,-3.1484 v -0.004 c -7.3047,-0.45312 -14.141,-3.7461 -19.047,-9.1758 -4.9062,-5.4297 -7.4922,-12.566 -7.2031,-19.879 0.2891,-7.313 3.4297,-14.219 8.75,-19.246 5.5195,-5.2539 12.953,-8.0078 20.562,-7.6133 24.324,1.1367 49.523,2.0117 74.988,2.625 22.664,0 45.586,-0.96094 67.812,-1.75 7.5938,-0.16406 14.926,2.7578 20.32,8.1055 5.3945,5.3438 8.3867,12.652 8.293,20.246 0.008,7.2148 -2.7578,14.152 -7.7266,19.383 -4.9688,5.2266 -11.758,8.3438 -18.961,8.7031 l -47.602,1.8398 c -5.6875,0.26172 -11.637,0.4375 -17.5,0.4375 z m -81.199,-42.086 v -0.004 c -2.6641,-0.0351 -5.2383,0.96875 -7.1758,2.8008 -2.0742,1.9961 -3.2695,4.7344 -3.3242,7.6133 -0.008,5.6016 4.3828,10.219 9.9727,10.5 l 61.949,3.1484 c 12.164,0.61328 24.586,0.61328 36.75,0 l 47.426,-2.1016 v 0.004 c 5.4805,-0.27734 9.8047,-4.7539 9.8906,-10.238 0.0781,-2.9219 -1.0625,-5.7422 -3.1523,-7.7891 -2.0273,-2.0352 -4.8281,-3.1172 -7.6992,-2.9727 -22.312,0.78906 -45.324,1.3984 -68.512,1.6641 -26.25,-0.52344 -51.273,-1.3984 -75.688,-2.5391 z"
       id="path210" />
    <path
       d="m 490,337.49 c -6.1328,-0.0352 -12.047,-2.3047 -16.625,-6.3867 -5.4688,-4.7734 -8.6484,-11.645 -8.75,-18.902 v -16.273 c 0.12109,-6.3594 2.6445,-12.434 7.0586,-17.008 4.4141,-4.5781 10.395,-7.3164 16.742,-7.668 l 43.051,-3.0625 c 4.9727,-0.34766 9.9375,0.80078 14.258,3.293 4.3164,2.4961 7.793,6.2227 9.9766,10.707 2.2812,4.4492 3.1523,9.4883 2.4961,14.441 -0.66016,4.957 -2.8086,9.5938 -6.168,13.297 -15.719,16.125 -36.785,25.957 -59.238,27.648 z m 42.699,-52.5 -42.699,3.7617 c -3.9961,0.27734 -7.0977,3.6055 -7.0859,7.6133 v 16.273 c 0.0156,2.2109 0.96875,4.3086 2.625,5.7773 1.5625,1.4219 3.6719,2.0938 5.7734,1.8359 18.133,-1.2383 35.199,-9.0078 48.039,-21.875 2.0156,-2.3164 2.4453,-5.6133 1.0898,-8.3672 -1.3594,-2.7539 -4.2383,-4.4258 -7.3047,-4.2344 z"
       id="path212" />
    <path
       d="m 210,336.26 h -3.0625 c -22.434,-1.8984 -43.402,-11.918 -58.977,-28.176 -3.4023,-3.7539 -5.5586,-8.4688 -6.168,-13.5 -0.61328,-5.0312 0.35156,-10.125 2.7578,-14.586 2.2148,-4.4805 5.7305,-8.1875 10.086,-10.637 4.3555,-2.4495 9.3477,-3.5312 14.324,-3.1016 l 42.961,3.3242 h 0.004 c 6.3125,0.53125 12.195,3.4141 16.477,8.0859 4.2812,4.668 6.6445,10.781 6.6211,17.117 v 16.273 c -0.11328,7.2305 -3.293,14.066 -8.75,18.812 -4.4805,4.0156 -10.258,6.2852 -16.273,6.3867 z m -43.137,-52.5 c -2.9688,0.0273 -5.6523,1.7734 -6.875,4.4805 -1.2227,2.707 -0.75781,5.8789 1.1875,8.1211 12.762,12.973 29.801,20.871 47.949,22.223 2.0859,0.25 4.1797,-0.38672 5.7734,-1.75 1.6211,-1.4883 2.5703,-3.5742 2.625,-5.7734 v -16.188 c 0.0586,-3.9922 -3.0156,-7.3359 -7,-7.6133 l -42.961,-3.4141 h -0.69922 z"
       id="path214" />
    <path
       d="M 423.68,384.21 H 276.33 c -4.832,0 -8.75,-3.9141 -8.75,-8.75 0,-4.832 3.918,-8.75 8.75,-8.75 h 147.35 c 4.832,0 8.75,3.918 8.75,8.75 0,4.8359 -3.918,8.75 -8.75,8.75 z"
       id="path216" />
    <path
       d="m 208.95,215.77 c -3.0977,0.11719 -6.0273,-1.4141 -7.6992,-4.0234 -1.5938,-2.4883 -1.8242,-5.6172 -0.61328,-8.3125 l 29.75,-66.238 c 1.4609,-3.1484 3.7578,-5.8359 6.6445,-7.7656 2.8867,-1.9297 6.25,-3.0273 9.7188,-3.1719 l 103.25,-2.8867 103.43,2.5391 c 3.4883,0.10547 6.8789,1.1875 9.7852,3.1211 2.9063,1.9336 5.2148,4.6406 6.6641,7.8164 l 29.926,66.062 c 1.2148,2.7031 0.97656,5.8398 -0.62891,8.332 -1.6094,2.4883 -4.3672,3.9961 -7.3359,4.0039 l -282.98,0.52344 z M 350,140.872 247.36,143.7587 c -0.41406,-0.004 -0.79297,0.23828 -0.96484,0.61328 l -24.148,53.898 255.85,-0.4375 -24.324,-53.812 h -0.004 c -0.19922,-0.34766 -0.55859,-0.57813 -0.96094,-0.60938 z"
       id="path218" />
  </g>
</svg>
