<svg fill="#e2725b" width="700" height="700" xmlns="http://www.w3.org/2000/svg" version="1.1">

    <g>
        <title>Layer 1</title>
        <g id="svg_13">
            <path id="svg_14"
                d="m315.00021,336.88545c-16.246,0 -31.824,-6.4531 -43.309,-17.941c-11.488,-11.484 -17.941,-27.062 -17.941,-43.309s6.4531,-31.824 17.941,-43.309c11.484,-11.488 27.062,-17.941 43.309,-17.941s31.824,6.4531 43.309,17.941c11.488,11.484 17.941,27.062 17.941,43.309c-0.01953,16.238 -6.4805,31.805 -17.961,43.289c-11.484,11.48 -27.051,17.941 -43.289,17.961zm0,-105c-11.602,0 -22.73,4.6094 -30.938,12.812c-8.2031,8.207 -12.812,19.336 -12.812,30.938s4.6094,22.73 12.812,30.938c8.207,8.2031 19.336,12.812 30.938,12.812s22.73,-4.6094 30.938,-12.812c8.2031,-8.207 12.812,-19.336 12.812,-30.938c-0.01172,-11.598 -4.6289,-22.719 -12.828,-30.922c-8.2031,-8.1992 -19.324,-12.816 -30.922,-12.828z" />
            <path id="svg_15"
                d="m385.00021,336.88545c-16.246,0 -31.824,-6.4531 -43.309,-17.941c-11.488,-11.484 -17.941,-27.062 -17.941,-43.309s6.4531,-31.824 17.941,-43.309c11.484,-11.488 27.062,-17.941 43.309,-17.941s31.824,6.4531 43.309,17.941c11.488,11.484 17.941,27.062 17.941,43.309c-0.01953,16.238 -6.4805,31.805 -17.961,43.289c-11.484,11.48 -27.051,17.941 -43.289,17.961zm0,-105c-11.602,0 -22.73,4.6094 -30.938,12.812c-8.2031,8.207 -12.812,19.336 -12.812,30.938s4.6094,22.73 12.812,30.938c8.207,8.2031 19.336,12.812 30.938,12.812s22.73,-4.6094 30.938,-12.812c8.2031,-8.207 12.812,-19.336 12.812,-30.938c-0.01172,-11.598 -4.6289,-22.719 -12.828,-30.922c-8.2031,-8.1992 -19.324,-12.816 -30.922,-12.828z" />
            <path id="svg_16"
                d="m385.01021,231.88545c-2.7578,0.00781 -5.3555,-1.293 -7.0078,-3.5039l-26.25,-35c-1.3984,-1.8555 -2,-4.1914 -1.6758,-6.4922c0.32812,-2.3008 1.5547,-4.375 3.4141,-5.7695c1.8594,-1.3945 4.1992,-1.9922 6.4961,-1.6602c2.3008,0.33203 4.375,1.5664 5.7656,3.4297l26.25,35c1.9844,2.6523 2.3008,6.1953 0.82422,9.1562c-1.4805,2.9609 -4.5039,4.8359 -7.8164,4.8398l-0.00002,0.0001z" />
            <path id="svg_17"
                d="m384.99021,231.88545c-3.3125,-0.00391 -6.3359,-1.8789 -7.8164,-4.8398c-1.4766,-2.9609 -1.1602,-6.5039 0.82422,-9.1562l26.25,-35c1.3906,-1.8633 3.4648,-3.0977 5.7656,-3.4297c2.2969,-0.33203 4.6367,0.26562 6.4961,1.6602c1.8594,1.3945 3.0859,3.4688 3.4141,5.7695c0.32422,2.3008 -0.27734,4.6367 -1.6758,6.4922l-26.25,35c-1.6523,2.2109 -4.25,3.5117 -7.0078,3.5039l-0.00002,-0.0001z" />
            <path id="svg_18"
                d="m411.25021,196.88545l-52.5,0c-4.832,0 -8.75,-3.918 -8.75,-8.75c0,-4.832 3.918,-8.75 8.75,-8.75l52.5,0c4.832,0 8.75,3.918 8.75,8.75c0,4.832 -3.918,8.75 -8.75,8.75z" />
            <path id="svg_19"
                d="m621.25021,555.62545l-542.5,0c-3.2266,0 -6.1914,-1.7773 -7.7148,-4.6211c-1.5234,-2.8438 -1.3555,-6.2969 0.43359,-8.9844l87.5,-131.25c1.2773,-1.9531 3.2812,-3.3164 5.5703,-3.7891c2.2891,-0.46875 4.668,-0.00391 6.6133,1.293c1.9414,1.2969 3.2852,3.3125 3.7344,5.6055c0.44531,2.293 -0.04297,4.668 -1.3555,6.6016l-78.434,117.64l509.8,0l-78.434,-117.64c-2.6211,-4.0195 -1.5195,-9.4023 2.4766,-12.066c3.9922,-2.6602 9.3828,-1.6094 12.086,2.3555l87.5,131.25c1.7891,2.6875 1.957,6.1406 0.43359,8.9844c-1.5234,2.8438 -4.4883,4.6211 -7.7148,4.6211l0.00532,-0.0005z" />
            <path id="svg_20"
                d="m621.25021,590.62545l-542.5,0c-2.3203,0 -4.5469,-0.92188 -6.1875,-2.5625s-2.5625,-3.8672 -2.5625,-6.1875l0,-35c0,-2.3203 0.92188,-4.5469 2.5625,-6.1875s3.8672,-2.5625 6.1875,-2.5625l542.5,0c2.3203,0 4.5469,0.92188 6.1875,2.5625s2.5625,3.8672 2.5625,6.1875l0,35c0,2.3203 -0.92188,4.5469 -2.5625,6.1875s-3.8672,2.5625 -6.1875,2.5625zm-533.75,-17.5l525,0l0,-17.5l-525,0l0,17.5z" />
            <path id="svg_21"
                d="m156.18021,555.62545c-3.0039,-0.00391 -5.793,-1.5469 -7.3906,-4.0859c-1.6016,-2.5391 -1.7891,-5.7227 -0.49609,-8.4336l45.879,-96.25c2.0859,-4.3477 7.3008,-6.1836 11.652,-4.1094c4.3555,2.0781 6.2031,7.2891 4.1367,11.648l-45.879,96.25c-1.4492,3.0469 -4.5273,4.9844 -7.9023,4.9805l0.00029,0.0004z" />
            <path id="svg_22"
                d="m246.17021,511.88545c-2.7461,0 -5.3359,-1.293 -6.9883,-3.4844s-2.1836,-5.0352 -1.4297,-7.6758l12.543,-43.75c0.63672,-2.2344 2.1328,-4.125 4.1641,-5.2539c2.0312,-1.1289 4.4258,-1.4023 6.6602,-0.76172s4.1211,2.1406 5.2422,4.1758c1.125,2.0312 1.3945,4.4297 0.75,6.6602l-12.543,43.75c-1.0703,3.75 -4.4961,6.3398 -8.3984,6.3398l-0.0001,0.00002z" />
            <path id="svg_23"
                d="m543.82021,555.62545c-3.375,0.00391 -6.4531,-1.9336 -7.9023,-4.9805l-16.695,-35.016l-0.00391,-0.00391c-1,-2.0938 -1.1289,-4.5 -0.35547,-6.6914c0.77344,-2.1875 2.3828,-3.9805 4.4805,-4.9805c2.0938,-1 4.5,-1.125 6.6914,-0.35156c2.1875,0.77734 3.9766,2.3906 4.9766,4.4883l16.695,35.016c1.293,2.7109 1.1055,5.8945 -0.49609,8.4336c-1.5977,2.5391 -4.3867,4.082 -7.3906,4.0859l-0.00013,0.00007z" />
            <path id="svg_24"
                d="m510.43021,485.58545c-3.375,0.00391 -6.4492,-1.9336 -7.9023,-4.9805l-29.172,-61.207c-2.082,-4.3633 -0.23438,-9.582 4.125,-11.664c4.3633,-2.082 9.5859,-0.23438 11.664,4.125l29.172,61.207c1.293,2.7109 1.1055,5.8945 -0.49219,8.4336c-1.6016,2.5391 -4.3906,4.082 -7.3945,4.0859l-0.00001,0z" />
            <path id="svg_25"
                d="m453.83021,511.88545c-3.8984,-0.00391 -7.3281,-2.5898 -8.3984,-6.3398l-12.543,-43.75c-0.64453,-2.2305 -0.375,-4.6289 0.74609,-6.6602c1.125,-2.0352 3.0117,-3.5352 5.2461,-4.1758s4.6289,-0.36719 6.6602,0.76172c2.0312,1.1289 3.5273,3.0195 4.1641,5.2539l12.543,43.75c0.75391,2.6406 0.22266,5.4844 -1.4297,7.6758s-4.2422,3.4844 -6.9883,3.4844l-0.00009,-0.00002z" />
            <path id="svg_26"
                d="m202.07021,459.38545l-59.156,0c-4.832,0 -8.75,-3.918 -8.75,-8.75s3.918,-8.75 8.75,-8.75l59.156,0c4.832,0 8.75,3.918 8.75,8.75s-3.918,8.75 -8.75,8.75z" />
            <path id="svg_27"
                d="m597.91021,520.62545l-70.777,0c-4.832,0 -8.75,-3.918 -8.75,-8.75s3.918,-8.75 8.75,-8.75l70.777,0c4.832,0 8.75,3.918 8.75,8.75s-3.918,8.75 -8.75,8.75z" />
            <path id="svg_28"
                d="m574.59021,485.62545l-64.137,0c-4.832,0 -8.75,-3.918 -8.75,-8.75s3.918,-8.75 8.75,-8.75l64.137,0c4.832,0 8.75,3.918 8.75,8.75s-3.918,8.75 -8.75,8.75z" />
            <path id="svg_29"
                d="m332.50021,468.12545l-73.793,0c-4.832,0 -8.75,-3.918 -8.75,-8.75s3.918,-8.75 8.75,-8.75l73.793,0c4.832,0 8.75,3.918 8.75,8.75s-3.918,8.75 -8.75,8.75z" />
            <path id="svg_30"
                d="m441.29021,468.12545l-72.98,0c-4.832,0 -8.75,-3.918 -8.75,-8.75s3.918,-8.75 8.75,-8.75l72.98,0c4.832,0 8.75,3.918 8.75,8.75s-3.918,8.75 -8.75,8.75z" />
            <path id="svg_31"
                d="m453.84021,511.88545l-207.68,0c-4.832,0 -8.75,-3.918 -8.75,-8.75s3.918,-8.75 8.75,-8.75l207.68,0c4.832,0 8.75,3.918 8.75,8.75s-3.918,8.75 -8.75,8.75z" />
            <path id="svg_32"
                d="m350.00021,485.62545c-2.1211,0 -4.1719,-0.76953 -5.7695,-2.1719c-5.4766,-4.8008 -134.23,-118.93 -134.23,-234.08c0,-50.016 26.684,-96.234 70,-121.24c43.316,-25.012 96.684,-25.012 140,0c43.316,25.008 70,71.227 70,121.24c0,115.14 -128.75,229.28 -134.23,234.08c-1.5977,1.4023 -3.6484,2.1719 -5.7695,2.1719l-0.001,0zm0,-358.75c-32.477,0.03516 -63.613,12.953 -86.582,35.918c-22.965,22.969 -35.883,54.105 -35.918,86.582c0,93.926 97.508,192.01 122.5,215.61c24.992,-23.594 122.5,-121.68 122.5,-215.61c-0.03516,-32.477 -12.953,-63.613 -35.918,-86.582c-22.969,-22.965 -54.105,-35.883 -86.582,-35.918z" />
            <path id="svg_33"
                d="m292.48021,424.38545l-126.23,0c-4.832,0 -8.75,-3.918 -8.75,-8.75s3.918,-8.75 8.75,-8.75l126.23,0c4.832,0 8.75,3.918 8.75,8.75s-3.918,8.75 -8.75,8.75z" />
            <path id="svg_34"
                d="m533.75021,424.38545l-126.24,0c-4.832,0 -8.75,-3.918 -8.75,-8.75s3.918,-8.75 8.75,-8.75l126.24,0c4.832,0 8.75,3.918 8.75,8.75s-3.918,8.75 -8.75,8.75z" />
        </g>
    </g>
</svg>