<?xml version="1.0" encoding="UTF-8" standalone="no"?>
<svg
   fill="#983b2f"
   width="700pt"
   height="700pt"
   version="1.1"
   viewBox="0 0 700 700"
   id="svg1793"
   sodipodi:docname="noun-wedding-181181.svg"
   inkscape:version="1.2.2 (b0a84865, 2022-12-01)"
   xmlns:inkscape="http://www.inkscape.org/namespaces/inkscape"
   xmlns:sodipodi="http://sodipodi.sourceforge.net/DTD/sodipodi-0.dtd"
   xmlns="http://www.w3.org/2000/svg"
   xmlns:svg="http://www.w3.org/2000/svg">
   <sodipodi:namedview
      id="namedview1795"
      pagecolor="#ffffff"
      bordercolor="#000000"
      borderopacity="0.25"
      inkscape:showpageshadow="2"
      inkscape:pageopacity="0.0"
      inkscape:pagecheckerboard="0"
      inkscape:deskcolor="#d1d1d1"
      inkscape:document-units="pt"
      showgrid="false"
      inkscape:zoom="0.25285714"
      inkscape:cx="-118.64407"
      inkscape:cy="468.64407"
      inkscape:window-width="1440"
      inkscape:window-height="789"
      inkscape:window-x="0"
      inkscape:window-y="25"
      inkscape:window-maximized="1"
      inkscape:current-layer="g1791" />
   <defs
      id="defs1703">
      <symbol
         id="x"
         overflow="visible">
         <path
            d="m20.844-1.25c-1.0742 0.5625-2.1953 0.98438-3.3594 1.2656-1.168 0.28125-2.3828 0.42188-3.6406 0.42188-3.7812 0-6.7773-1.0508-8.9844-3.1562-2.2109-2.1133-3.3125-4.9766-3.3125-8.5938 0-3.625 1.1016-6.4922 3.3125-8.6094 2.207-2.1133 5.2031-3.1719 8.9844-3.1719 1.2578 0 2.4727 0.14844 3.6406 0.4375 1.1641 0.28125 2.2852 0.69922 3.3594 1.25v4.7031c-1.0859-0.73828-2.1523-1.2812-3.2031-1.625-1.0547-0.34375-2.1641-0.51562-3.3281-0.51562-2.0859 0-3.7266 0.66797-4.9219 2-1.1992 1.3359-1.7969 3.1797-1.7969 5.5312 0 2.3359 0.59766 4.1719 1.7969 5.5156 1.1953 1.3359 2.8359 2 4.9219 2 1.1641 0 2.2734-0.17188 3.3281-0.51562 1.0508-0.34375 2.1172-0.88281 3.2031-1.625z"
            id="path1631" />
      </symbol>
      <symbol
         id="d"
         overflow="visible">
         <path
            d="m15.25-12.375c-0.48047-0.22656-0.95312-0.39453-1.4219-0.5-0.46875-0.10156-0.94531-0.15625-1.4219-0.15625-1.3984 0-2.4766 0.44922-3.2344 1.3438-0.75 0.89844-1.125 2.1797-1.125 3.8438v7.8438h-5.4375v-17.016h5.4375v2.7969c0.69531-1.1133 1.5-1.9258 2.4062-2.4375 0.90625-0.50781 1.9922-0.76562 3.2656-0.76562 0.17578 0 0.36719 0.011719 0.57812 0.03125 0.21875 0.011719 0.53125 0.042969 0.9375 0.09375z"
            id="path1634" />
      </symbol>
      <symbol
         id="a"
         overflow="visible">
         <path
            d="m19.594-8.5469v1.5469h-12.719c0.13281 1.2734 0.59766 2.2305 1.3906 2.875 0.78906 0.63672 1.8945 0.95312 3.3125 0.95312 1.1445 0 2.3164-0.16406 3.5156-0.5 1.1953-0.34375 2.4297-0.85938 3.7031-1.5469v4.1875c-1.293 0.49219-2.5859 0.85547-3.875 1.0938-1.2812 0.25-2.5625 0.375-3.8438 0.375-3.0859 0-5.4805-0.78125-7.1875-2.3438-1.6992-1.5625-2.5469-3.7539-2.5469-6.5781 0-2.7812 0.83203-4.9609 2.5-6.5469 1.6758-1.5938 3.9844-2.3906 6.9219-2.3906 2.6758 0 4.8164 0.80859 6.4219 2.4219 1.6016 1.6055 2.4062 3.7578 2.4062 6.4531zm-5.5938-1.8125c0-1.0312-0.30469-1.8633-0.90625-2.5-0.59375-0.63281-1.3828-0.95312-2.3594-0.95312-1.0547 0-1.9062 0.29688-2.5625 0.89062s-1.0703 1.4492-1.2344 2.5625z"
            id="path1637" />
      </symbol>
      <symbol
         id="c"
         overflow="visible">
         <path
            d="m10.234-7.6562c-1.1367 0-1.9922 0.19531-2.5625 0.57812-0.5625 0.38672-0.84375 0.95312-0.84375 1.7031 0 0.6875 0.22656 1.2305 0.6875 1.625 0.45703 0.38672 1.0977 0.57812 1.9219 0.57812 1.0195 0 1.8789-0.36328 2.5781-1.0938 0.69531-0.73828 1.0469-1.6602 1.0469-2.7656v-0.625zm8.3125-2.0469v9.7031h-5.4844v-2.5156c-0.73047 1.0312-1.5547 1.7812-2.4688 2.25-0.90625 0.46875-2.0117 0.70312-3.3125 0.70312-1.7617 0-3.1953-0.50781-4.2969-1.5312-1.0938-1.0312-1.6406-2.3672-1.6406-4.0156 0-1.9883 0.67969-3.4453 2.0469-4.375 1.375-0.9375 3.5312-1.4062 6.4688-1.4062h3.2031v-0.42188c0-0.86328-0.33984-1.4922-1.0156-1.8906-0.67969-0.40625-1.7344-0.60938-3.1719-0.60938-1.168 0-2.2578 0.12109-3.2656 0.35938-1 0.23047-1.9297 0.57812-2.7812 1.0469v-4.1562c1.1641-0.28125 2.332-0.49219 3.5-0.64062 1.1758-0.14453 2.3516-0.21875 3.5312-0.21875 3.0703 0 5.2852 0.60547 6.6406 1.8125 1.3633 1.2109 2.0469 3.1797 2.0469 5.9062z"
            id="path1640" />
      </symbol>
      <symbol
         id="b"
         overflow="visible">
         <path
            d="m8.5469-21.844v4.8281h5.6094v3.8906h-5.6094v7.2188c0 0.79297 0.15625 1.3281 0.46875 1.6094 0.32031 0.27344 0.94531 0.40625 1.875 0.40625h2.7969v3.8906h-4.6719c-2.1484 0-3.668-0.44531-4.5625-1.3438-0.89844-0.89453-1.3438-2.4141-1.3438-4.5625v-7.2188h-2.7031v-3.8906h2.7031v-4.8281z"
            id="path1643" />
      </symbol>
      <symbol
         id="l"
         overflow="visible">
         <path
            d="m14.188-14.516v-9.125h5.4688v23.641h-5.4688v-2.4531c-0.75 1-1.5781 1.7344-2.4844 2.2031-0.89844 0.45703-1.9375 0.6875-3.125 0.6875-2.0938 0-3.8203-0.83203-5.1719-2.5-1.3438-1.6641-2.0156-3.8047-2.0156-6.4219 0-2.625 0.67188-4.7695 2.0156-6.4375 1.3516-1.6641 3.0781-2.5 5.1719-2.5 1.1758 0 2.2188 0.23438 3.125 0.70312s1.7344 1.2031 2.4844 2.2031zm-3.5781 11c1.1562 0 2.0391-0.42188 2.6562-1.2656 0.61328-0.85156 0.92188-2.0859 0.92188-3.7031 0-1.625-0.30859-2.8594-0.92188-3.7031-0.61719-0.85156-1.5-1.2812-2.6562-1.2812s-2.043 0.42969-2.6562 1.2812c-0.61719 0.84375-0.92188 2.0781-0.92188 3.7031 0 1.6172 0.30469 2.8516 0.92188 3.7031 0.61328 0.84375 1.5 1.2656 2.6562 1.2656z"
            id="path1646" />
      </symbol>
      <symbol
         id="k"
         overflow="visible">
         <path
            d="m11.672-3.5156c1.1562 0 2.0391-0.42188 2.6562-1.2656 0.61328-0.85156 0.92188-2.0859 0.92188-3.7031 0-1.625-0.30859-2.8594-0.92188-3.7031-0.61719-0.85156-1.5-1.2812-2.6562-1.2812-1.168 0-2.0625 0.42969-2.6875 1.2812-0.625 0.85547-0.9375 2.0898-0.9375 3.7031 0 1.6055 0.3125 2.8359 0.9375 3.6875 0.625 0.85547 1.5195 1.2812 2.6875 1.2812zm-3.625-11c0.75-1 1.5781-1.7344 2.4844-2.2031 0.91406-0.46875 1.9688-0.70312 3.1562-0.70312 2.0938 0 3.8125 0.83594 5.1562 2.5 1.3516 1.668 2.0312 3.8125 2.0312 6.4375 0 2.6172-0.67969 4.7578-2.0312 6.4219-1.3438 1.668-3.0625 2.5-5.1562 2.5-1.1875 0-2.2422-0.23438-3.1562-0.70312-0.90625-0.46875-1.7344-1.1953-2.4844-2.1875v2.4531h-5.4375v-23.641h5.4375z"
            id="path1649" />
      </symbol>
      <symbol
         id="j"
         overflow="visible">
         <path
            d="m0.375-17.016h5.4375l4.5781 11.547 3.8906-11.547h5.4375l-7.1562 18.625c-0.71875 1.8945-1.5586 3.2188-2.5156 3.9688-0.96094 0.75781-2.2188 1.1406-3.7812 1.1406h-3.1562v-3.5781h1.7031c0.92578 0 1.5977-0.14844 2.0156-0.4375 0.41406-0.29297 0.74219-0.82031 0.98438-1.5781l0.14062-0.46875z"
            id="path1652" />
      </symbol>
      <symbol
         id="i"
         overflow="visible">
         <path
            d="m-0.29688-22.672h6.3906l5.1562 8.0781 5.1719-8.0781h6.4062l-8.6406 13.125v9.5469h-5.8438v-9.5469z"
            id="path1655" />
      </symbol>
      <symbol
         id="w"
         overflow="visible">
         <path
            d="m1.7812-17.016h14.844v3.7969l-8.9688 9.3281h8.9688v3.8906h-15.234v-3.7969l8.9688-9.3281h-8.5781z"
            id="path1658" />
      </symbol>
      <symbol
         id="h"
         overflow="visible">
         <path
            d="m18.375-14.188c0.6875-1.0508 1.5039-1.8516 2.4531-2.4062 0.94531-0.55078 1.9883-0.82812 3.125-0.82812 1.957 0 3.4453 0.60547 4.4688 1.8125 1.0195 1.1992 1.5312 2.9492 1.5312 5.25v10.359h-5.4688v-8.875c0.007813-0.125 0.015625-0.25781 0.015625-0.40625 0.007812-0.14453 0.015625-0.34766 0.015625-0.60938 0-1.207-0.17969-2.082-0.53125-2.625-0.35547-0.53906-0.92969-0.8125-1.7188-0.8125-1.0312 0-1.8281 0.42969-2.3906 1.2812-0.5625 0.85547-0.85547 2.0859-0.875 3.6875v8.3594h-5.4688v-8.875c0-1.8828-0.16406-3.0977-0.48438-3.6406-0.32422-0.53906-0.90234-0.8125-1.7344-0.8125-1.043 0-1.8516 0.43359-2.4219 1.2969-0.5625 0.85547-0.84375 2.0742-0.84375 3.6562v8.375h-5.4688v-17.016h5.4688v2.5c0.66406-0.96875 1.4297-1.6914 2.2969-2.1719 0.875-0.48828 1.832-0.73438 2.875-0.73438 1.1758 0 2.2109 0.28906 3.1094 0.85938 0.90625 0.5625 1.5859 1.3555 2.0469 2.375z"
            id="path1661" />
      </symbol>
      <symbol
         id="g"
         overflow="visible">
         <path
            d="m2.6094-17.016h5.4375v17.016h-5.4375zm0-6.625h5.4375v4.4375h-5.4375z"
            id="path1664" />
      </symbol>
      <symbol
         id="f"
         overflow="visible">
         <path
            d="m19.719-10.359v10.359h-5.4688v-7.9219c0-1.4688-0.039062-2.4766-0.10938-3.0312-0.0625-0.5625-0.17188-0.97656-0.32812-1.25-0.21875-0.35156-0.51172-0.62891-0.875-0.82812-0.36719-0.19531-0.77734-0.29688-1.2344-0.29688-1.1367 0-2.0312 0.44531-2.6875 1.3281-0.64844 0.875-0.96875 2.0859-0.96875 3.625v8.375h-5.4375v-17.016h5.4375v2.5c0.82031-1 1.6914-1.7344 2.6094-2.2031 0.92578-0.46875 1.9453-0.70312 3.0625-0.70312 1.957 0 3.4453 0.60547 4.4688 1.8125 1.0195 1.1992 1.5312 2.9492 1.5312 5.25z"
            id="path1667" />
      </symbol>
      <symbol
         id="v"
         overflow="visible">
         <path
            d="m16.625-4.125h-9.1562l-1.4375 4.125h-5.875l8.3906-22.672h6.9844l8.3906 22.672h-5.875zm-7.6875-4.2188h6.2031l-3.0938-9.0156z"
            id="path1670" />
      </symbol>
      <symbol
         id="u"
         overflow="visible">
         <path
            d="m2.6094-23.641h5.4375v23.641h-5.4375z"
            id="path1673" />
      </symbol>
      <symbol
         id="t"
         overflow="visible">
         <path
            d="m15.906-16.484v4.1406c-1.168-0.48828-2.293-0.85156-3.375-1.0938-1.0859-0.25-2.1055-0.375-3.0625-0.375-1.043 0-1.8125 0.13281-2.3125 0.39062-0.5 0.26172-0.75 0.65625-0.75 1.1875 0 0.4375 0.1875 0.77734 0.5625 1.0156 0.38281 0.23047 1.0664 0.40234 2.0469 0.51562l0.96875 0.125c2.7812 0.35547 4.6484 0.9375 5.6094 1.75 0.96875 0.8125 1.4531 2.0859 1.4531 3.8125 0 1.8125-0.67188 3.1797-2.0156 4.0938-1.3359 0.90625-3.3281 1.3594-5.9844 1.3594-1.1172 0-2.2773-0.089844-3.4844-0.26562-1.1992-0.17578-2.4297-0.44141-3.6875-0.79688v-4.125c1.082 0.52344 2.1914 0.91797 3.3281 1.1875 1.1328 0.26172 2.2891 0.39062 3.4688 0.39062 1.0625 0 1.8594-0.14453 2.3906-0.4375 0.53906-0.30078 0.8125-0.73828 0.8125-1.3125 0-0.48828-0.1875-0.84766-0.5625-1.0781-0.36719-0.23828-1.1016-0.42578-2.2031-0.5625l-0.95312-0.125c-2.418-0.30078-4.1172-0.85938-5.0938-1.6719-0.96875-0.82031-1.4531-2.0703-1.4531-3.75 0-1.8008 0.61328-3.1328 1.8438-4 1.2383-0.875 3.1328-1.3125 5.6875-1.3125 1 0 2.0508 0.078125 3.1562 0.23438 1.1016 0.14844 2.3047 0.38281 3.6094 0.70312z"
            id="path1676" />
      </symbol>
      <symbol
         id="s"
         overflow="visible">
         <path
            d="m13.812-23.641v3.5781h-3.0156c-0.77344 0-1.3086 0.14062-1.6094 0.42188-0.30469 0.27344-0.45312 0.75-0.45312 1.4375v1.1875h4.6406v3.8906h-4.6406v13.125h-5.4375v-13.125h-2.7031v-3.8906h2.7031v-1.1875c0-1.8516 0.51562-3.2227 1.5469-4.1094 1.0312-0.88281 2.6289-1.3281 4.7969-1.3281z"
            id="path1679" />
      </symbol>
      <symbol
         id="e"
         overflow="visible">
         <path
            d="m10.703-13.531c-1.1992 0-2.1172 0.43359-2.75 1.2969-0.63672 0.86719-0.95312 2.1172-0.95312 3.75 0 1.625 0.31641 2.8711 0.95312 3.7344 0.63281 0.86719 1.5508 1.2969 2.75 1.2969 1.1875 0 2.0938-0.42969 2.7188-1.2969 0.63281-0.86328 0.95312-2.1094 0.95312-3.7344 0-1.6328-0.32031-2.8828-0.95312-3.75-0.625-0.86328-1.5312-1.2969-2.7188-1.2969zm0-3.8906c2.9258 0 5.2109 0.79297 6.8594 2.375 1.6445 1.5742 2.4688 3.7617 2.4688 6.5625 0 2.793-0.82422 4.9805-2.4688 6.5625-1.6484 1.5742-3.9336 2.3594-6.8594 2.3594-2.9375 0-5.2344-0.78516-6.8906-2.3594-1.6484-1.582-2.4688-3.7695-2.4688-6.5625 0-2.8008 0.82031-4.9883 2.4688-6.5625 1.6562-1.582 3.9531-2.375 6.8906-2.375z"
            id="path1682" />
      </symbol>
      <symbol
         id="r"
         overflow="visible">
         <path
            d="m19.719-10.359v10.359h-5.4688v-7.9062c0-1.4766-0.039062-2.4922-0.10938-3.0469-0.0625-0.5625-0.17188-0.97656-0.32812-1.25-0.21875-0.35156-0.51172-0.62891-0.875-0.82812-0.36719-0.19531-0.77734-0.29688-1.2344-0.29688-1.1367 0-2.0312 0.44531-2.6875 1.3281-0.64844 0.875-0.96875 2.0859-0.96875 3.625v8.375h-5.4375v-23.641h5.4375v9.125c0.82031-1 1.6914-1.7344 2.6094-2.2031 0.92578-0.46875 1.9453-0.70312 3.0625-0.70312 1.957 0 3.4453 0.60547 4.4688 1.8125 1.0195 1.1992 1.5312 2.9492 1.5312 5.25z"
            id="path1685" />
      </symbol>
      <symbol
         id="q"
         overflow="visible">
         <path
            d="m2.8594-22.672h6.5312l8.25 15.547v-15.547h5.5469v22.672h-6.5469l-8.2344-15.562v15.562h-5.5469z"
            id="path1688" />
      </symbol>
      <symbol
         id="p"
         overflow="visible">
         <path
            d="m2.4375-6.625v-10.391h5.4688v1.7031c0 0.92969-0.007812 2.0898-0.015625 3.4844-0.011719 1.3867-0.015625 2.3125-0.015625 2.7812 0 1.3672 0.03125 2.3516 0.09375 2.9531 0.070312 0.60547 0.19531 1.043 0.375 1.3125 0.21875 0.35547 0.50391 0.63281 0.85938 0.82812 0.36328 0.1875 0.78125 0.28125 1.25 0.28125 1.1328 0 2.0234-0.42969 2.6719-1.2969 0.64453-0.875 0.96875-2.0859 0.96875-3.6406v-8.4062h5.4375v17.016h-5.4375v-2.4531c-0.82422 0.99219-1.6953 1.7188-2.6094 2.1875-0.91797 0.46875-1.9297 0.70312-3.0312 0.70312-1.9609 0-3.4531-0.59766-4.4844-1.7969-1.0234-1.207-1.5312-2.9609-1.5312-5.2656z"
            id="path1691" />
      </symbol>
      <symbol
         id="o"
         overflow="visible">
         <path
            d="m2.8594-22.672h9.7031c2.8828 0 5.0977 0.64062 6.6406 1.9219 1.5508 1.2812 2.3281 3.1055 2.3281 5.4688 0 2.375-0.77734 4.2031-2.3281 5.4844-1.543 1.2812-3.7578 1.9219-6.6406 1.9219h-3.8594v7.875h-5.8438zm5.8438 4.2344v6.3281h3.2344c1.1328 0 2.0078-0.27344 2.625-0.82812 0.625-0.55078 0.9375-1.332 0.9375-2.3438 0-1.0078-0.3125-1.7852-0.9375-2.3281-0.61719-0.55078-1.4922-0.82812-2.625-0.82812z"
            id="path1694" />
      </symbol>
      <symbol
         id="n"
         overflow="visible">
         <path
            d="m2.6094-17.016h5.4375v16.719c0 2.2695-0.54688 4.0039-1.6406 5.2031-1.0938 1.207-2.6797 1.8125-4.75 1.8125h-2.6875v-3.5781h0.9375c1.0312 0 1.7383-0.23438 2.125-0.70312 0.38281-0.46094 0.57812-1.3711 0.57812-2.7344zm0-6.625h5.4375v4.4375h-5.4375z"
            id="path1697" />
      </symbol>
      <symbol
         id="m"
         overflow="visible">
         <path
            d="m16.359-16.484v4.4375c-0.74219-0.50781-1.4844-0.88281-2.2344-1.125-0.74219-0.23828-1.5117-0.35938-2.3125-0.35938-1.5117 0-2.6953 0.44531-3.5469 1.3281-0.84375 0.88672-1.2656 2.125-1.2656 3.7188 0 1.5859 0.42188 2.8203 1.2656 3.7031 0.85156 0.88672 2.0352 1.3281 3.5469 1.3281 0.85156 0 1.6602-0.125 2.4219-0.375 0.76953-0.25 1.4766-0.625 2.125-1.125v4.4531c-0.85547 0.3125-1.7188 0.54688-2.5938 0.70312s-1.75 0.23438-2.625 0.23438c-3.0742 0-5.4766-0.78516-7.2031-2.3594-1.7305-1.5703-2.5938-3.7578-2.5938-6.5625 0-2.8125 0.86328-5.0039 2.5938-6.5781 1.7266-1.5703 4.1289-2.3594 7.2031-2.3594 0.88281 0 1.7578 0.078125 2.625 0.23438 0.86328 0.15625 1.7266 0.39062 2.5938 0.70312z"
            id="path1700" />
      </symbol>
   </defs>
   <g
      id="g1791">
      <g
         id="g1801"
         transform="translate(-0.004185,69.99815)">
         <path
            d="m 563.95,65.203 c 0,27.863 -22.555,50.43 -50.406,50.43 -27.871,0 -50.469,-22.574 -50.469,-50.43 0,-27.856 22.598,-50.438 50.469,-50.438 27.852,0 50.406,22.586 50.406,50.438 z"
            id="path1705" />
         <path
            d="m 534,124.03 -20.504,10.043 -20.48,-10.043 v 29.676 l 20.48,-10.043 20.504,10.043 z"
            id="path1707" />
         <path
            d="m 581.44,138.86 h -29.309 l -38.629,82.832 -38.609,-82.832 h -29.316 c -8.0469,0 -14.59,6.5508 -14.59,14.598 0,0.71484 0.0508,1.4258 0.14844,2.1016 l 0.54688,3.5391 26.734,165.71 v 220.43 h 47.617 v -164.39 c 0,-4.1172 3.3398,-7.4727 7.4648,-7.4727 4.1328,0 7.4844,3.3555 7.4844,7.4727 v 164.39 h 47.586 l 0.008,-220.43 27.012,-167.45 0.30469,-1.8008 c 0.10547,-0.67188 0.16016,-1.3867 0.16016,-2.1016 0,-8.0469 -6.5508,-14.598 -14.613,-14.598 z"
            id="path1709" />
         <path
            d="m 389.41,335.95 c 6.0469,-3.8008 12.059,-7.8594 17.914,-12.121 49.199,-35.742 5.1875,-99.711 -41.395,-167.45 C 351.8,135.844 335.812,112.613 322.163,89.621 315.331,66.293 293.835,50.109 269.448,50.109 c -24.371,0 -45.883,16.184 -52.715,39.504 -13.652,22.992 -29.645,46.23 -43.766,66.77 -46.59,67.738 -90.613,131.72 -41.402,167.45 5.8555,4.2695 11.852,8.3242 17.906,12.129 -29.398,50.637 -45.516,117.45 -45.516,189.3 0,10.422 8.4805,18.898 18.902,18.898 h 293.17 c 10.414,0 18.891,-8.4766 18.891,-18.898 -0.004,-71.867 -16.105,-138.67 -45.512,-189.31 z M 225.16,118.9 c 5.875,18.867 23.484,32.555 44.285,32.555 20.812,0 38.41,-13.688 44.285,-32.555 10.828,17.035 22.352,33.812 33.656,50.23 41.945,60.977 78.168,113.65 46.723,136.5 -8.0312,5.8359 -16.16,11.148 -24.203,15.859 -15.75,-21.965 -34.258,-38.883 -54.762,-49.188 9.793,-20.75 18.836,-47.039 18.836,-64.367 0,-43.66 -41.988,-43.66 -64.535,-43.66 -22.555,0 -64.535,0 -64.535,43.66 0,17.336 9.0273,43.617 18.82,64.367 -20.504,10.305 -39,27.234 -54.762,49.188 -8.0312,-4.7109 -16.16,-10.02 -24.191,-15.848 -31.465,-22.859 4.7734,-75.52 46.723,-136.5 11.297,-16.422 22.82,-33.191 33.66,-50.234 z m 16.285,168.09 c 2.7617,-1.0508 4.9336,-3.2422 5.9805,-6.0039 1.0391,-2.7695 0.83984,-5.8438 -0.54688,-8.457 -11.039,-20.824 -19.594,-45.566 -21.105,-60.336 11.93,1.6367 22.312,6.3789 30.297,14.043 3.3242,3.1875 6.2656,7.1289 8.9922,12.051 1.207,2.1836 3.5078,3.5391 6.0117,3.5391 2.5,0 4.7969,-1.3672 6.0039,-3.5547 2.7188,-4.8984 5.6641,-8.8398 8.9922,-12.039 7.2383,-6.9453 16.434,-11.531 26.98,-13.547 -1.6367,14.82 -10.129,39.25 -21.055,59.84 -1.3828,2.6133 -1.582,5.6875 -0.54297,8.457 1.0391,2.7578 3.2188,4.9531 5.9805,6.0039 42.543,16.215 77.145,67.523 95.039,134.45 -18.449,4.2734 -40.363,0.26562 -61.352,-11.441 -3.168,-1.7617 -7.168,-0.76562 -9.1289,2.2891 -11.566,17.996 -31.223,28.734 -52.547,28.734 -21.344,0 -40.984,-10.746 -52.555,-28.727 -1.9609,-3.0508 -5.9688,-4.0508 -9.1328,-2.2969 -20.938,11.691 -42.996,15.645 -61.34,11.43 17.891,-66.906 52.496,-118.2 95.027,-134.43 z m -14.637,-88.523 c 3.2188,-9.2891 13.57,-13.578 42.633,-13.578 29.531,0 39.734,4.4258 42.766,14.039 -13.871,2.3164 -26.066,8.1836 -35.66,17.387 -1.9336,1.8672 -3.7578,3.8945 -5.4766,6.1094 -1.7305,-2.2266 -3.5547,-4.2578 -5.4961,-6.1094 -10.309,-9.9023 -23.602,-15.941 -38.766,-17.848 z m -83.699,236.27 c 20.078,4.6602 43.477,1.2773 65.852,-9.832 14.391,18.809 36.562,29.867 60.484,29.867 23.918,0 46.082,-11.051 60.473,-29.867 22.406,11.125 45.703,14.59 65.863,9.8828 5.7188,25.133 9.1406,52.16 9.8047,80.18 l -272.3,-0.004 c 0.66797,-28.035 4.1016,-55.082 9.8203,-80.227 z"
            id="path1711" />
      </g>
   </g>
</svg>