<?xml version="1.0" encoding="UTF-8" standalone="no"?>
<svg
   fill="#e2725b"
   width="700pt"
   height="700pt"
   version="1.1"
   viewBox="0 0 700 700"
   id="svg1090"
   sodipodi:docname="noun-present-5273624.svg"
   inkscape:version="1.2.2 (b0a84865, 2022-12-01)"
   xmlns:inkscape="http://www.inkscape.org/namespaces/inkscape"
   xmlns:sodipodi="http://sodipodi.sourceforge.net/DTD/sodipodi-0.dtd"
   xmlns="http://www.w3.org/2000/svg"
   xmlns:svg="http://www.w3.org/2000/svg">
   <sodipodi:namedview
      id="namedview1092"
      pagecolor="#ffffff"
      bordercolor="#000000"
      borderopacity="0.25"
      inkscape:showpageshadow="2"
      inkscape:pageopacity="0.0"
      inkscape:pagecheckerboard="0"
      inkscape:deskcolor="#d1d1d1"
      inkscape:document-units="pt"
      showgrid="false"
      inkscape:zoom="0.37152533"
      inkscape:cx="285.31029"
      inkscape:cy="617.72369"
      inkscape:window-width="1440"
      inkscape:window-height="789"
      inkscape:window-x="0"
      inkscape:window-y="25"
      inkscape:window-maximized="1"
      inkscape:current-layer="g1088" />
   <defs
      id="defs1014">
      <symbol
         id="t"
         overflow="visible">
         <path
            d="m3.6562-0.21875c-0.1875 0.09375-0.38672 0.16797-0.59375 0.21875-0.19922 0.050781-0.40625 0.078125-0.625 0.078125-0.66797 0-1.1992-0.17969-1.5938-0.54688-0.38672-0.375-0.57812-0.87891-0.57812-1.5156 0-0.64453 0.19141-1.1484 0.57812-1.5156 0.39453-0.375 0.92578-0.5625 1.5938-0.5625 0.21875 0 0.42578 0.027344 0.625 0.078125 0.20703 0.054687 0.40625 0.125 0.59375 0.21875v0.82812c-0.1875-0.125-0.375-0.21875-0.5625-0.28125-0.17969-0.0625-0.37109-0.09375-0.57812-0.09375-0.36719 0-0.65625 0.12109-0.875 0.35938-0.21094 0.23047-0.3125 0.55469-0.3125 0.96875 0 0.40625 0.10156 0.73047 0.3125 0.96875 0.21875 0.23047 0.50781 0.34375 0.875 0.34375 0.20703 0 0.39844-0.023437 0.57812-0.078125 0.1875-0.0625 0.375-0.16016 0.5625-0.29688z"
            id="path954" />
      </symbol>
      <symbol
         id="b"
         overflow="visible">
         <path
            d="m2.6875-2.1719c-0.085938-0.039063-0.16797-0.070313-0.25-0.09375-0.085938-0.019531-0.16797-0.03125-0.25-0.03125-0.25 0-0.44531 0.085937-0.57812 0.25-0.125 0.15625-0.1875 0.38281-0.1875 0.67188v1.375h-0.96875v-2.9844h0.96875v0.48438c0.11328-0.19531 0.25-0.33594 0.40625-0.42188 0.16406-0.09375 0.35938-0.14062 0.57812-0.14062h0.10938c0.039063 0 0.09375 0.007812 0.15625 0.015625z"
            id="path957" />
      </symbol>
      <symbol
         id="a"
         overflow="visible">
         <path
            d="m3.4375-1.5v0.26562h-2.2344c0.03125 0.23047 0.11328 0.40234 0.25 0.51562 0.13281 0.10547 0.32812 0.15625 0.57812 0.15625 0.20703 0 0.41406-0.023438 0.625-0.078125 0.20703-0.0625 0.42188-0.15625 0.64062-0.28125v0.73438c-0.21875 0.09375-0.44531 0.16406-0.67188 0.20312-0.23047 0.039062-0.45312 0.0625-0.67188 0.0625-0.54297 0-0.96484-0.13281-1.2656-0.40625-0.30469-0.28125-0.45312-0.67188-0.45312-1.1719 0-0.47656 0.14453-0.85938 0.4375-1.1406 0.30078-0.28125 0.70703-0.42188 1.2188-0.42188 0.46875 0 0.84375 0.14062 1.125 0.42188s0.42188 0.66406 0.42188 1.1406zm-0.96875-0.32812c0-0.17578-0.058594-0.31641-0.17188-0.42188-0.10547-0.11328-0.24219-0.17188-0.40625-0.17188-0.1875 0-0.33984 0.054687-0.45312 0.15625-0.11719 0.10547-0.1875 0.25-0.21875 0.4375z"
            id="path960" />
      </symbol>
      <symbol
         id="f"
         overflow="visible">
         <path
            d="m1.7969-1.3438c-0.19922 0-0.35156 0.039062-0.45312 0.10938-0.09375 0.0625-0.14062 0.16406-0.14062 0.29688 0 0.11719 0.035156 0.21094 0.10938 0.28125 0.082031 0.0625 0.19531 0.09375 0.34375 0.09375 0.17578 0 0.32812-0.0625 0.45312-0.1875s0.1875-0.28516 0.1875-0.48438v-0.10938zm1.4688-0.35938v1.7031h-0.96875v-0.4375c-0.125 0.17969-0.27344 0.30859-0.4375 0.39062-0.15625 0.082031-0.35156 0.125-0.57812 0.125-0.3125 0-0.57031-0.085938-0.76562-0.26562-0.1875-0.1875-0.28125-0.42188-0.28125-0.70312 0-0.35156 0.11719-0.61328 0.35938-0.78125 0.23828-0.16406 0.61719-0.25 1.1406-0.25h0.5625v-0.0625c0-0.15625-0.0625-0.26562-0.1875-0.32812-0.11719-0.070312-0.29688-0.10938-0.54688-0.10938-0.21094 0-0.40234 0.023437-0.57812 0.0625-0.17969 0.042969-0.33984 0.10156-0.48438 0.17188v-0.71875c0.19531-0.050781 0.39844-0.085938 0.60938-0.10938 0.20703-0.03125 0.41406-0.046875 0.625-0.046875 0.53906 0 0.92969 0.10938 1.1719 0.32812 0.23828 0.21094 0.35938 0.55469 0.35938 1.0312z"
            id="path963" />
      </symbol>
      <symbol
         id="d"
         overflow="visible">
         <path
            d="m1.5-3.8438v0.85938h0.98438v0.67188h-0.98438v1.2812c0 0.13672 0.023438 0.23047 0.078125 0.28125 0.0625 0.042969 0.17578 0.0625 0.34375 0.0625h0.48438v0.6875h-0.8125c-0.38672 0-0.65625-0.078125-0.8125-0.23438s-0.23438-0.42188-0.23438-0.79688v-1.2812h-0.46875v-0.67188h0.46875v-0.85938z"
            id="path966" />
      </symbol>
      <symbol
         id="k"
         overflow="visible">
         <path
            d="m2.5-2.5469v-1.6094h0.95312v4.1562h-0.95312v-0.4375c-0.13672 0.17969-0.28125 0.30859-0.4375 0.39062-0.15625 0.082031-0.33984 0.125-0.54688 0.125-0.375 0-0.68359-0.14453-0.92188-0.4375-0.23047-0.28906-0.34375-0.67188-0.34375-1.1406 0-0.45703 0.11328-0.83203 0.34375-1.125 0.23828-0.28906 0.54688-0.4375 0.92188-0.4375 0.19531 0 0.375 0.042969 0.53125 0.125 0.16406 0.085938 0.31641 0.21484 0.45312 0.39062zm-0.64062 1.9375c0.20703 0 0.36328-0.070313 0.46875-0.21875 0.11328-0.15625 0.17188-0.37891 0.17188-0.67188 0-0.28125-0.058594-0.49219-0.17188-0.64062-0.10547-0.15625-0.26172-0.23438-0.46875-0.23438-0.19922 0-0.35547 0.078125-0.46875 0.23438-0.10547 0.14844-0.15625 0.35938-0.15625 0.64062 0 0.29297 0.050781 0.51562 0.15625 0.67188 0.11328 0.14844 0.26953 0.21875 0.46875 0.21875z"
            id="path969" />
      </symbol>
      <symbol
         id="j"
         overflow="visible">
         <path
            d="m2.0469-0.60938c0.20703 0 0.36328-0.070313 0.46875-0.21875 0.11328-0.15625 0.17188-0.37891 0.17188-0.67188 0-0.28125-0.058594-0.49219-0.17188-0.64062-0.10547-0.15625-0.26172-0.23438-0.46875-0.23438-0.19922 0-0.35547 0.078125-0.46875 0.23438-0.10547 0.14844-0.15625 0.35938-0.15625 0.64062 0 0.29297 0.050781 0.51562 0.15625 0.67188 0.11328 0.14844 0.26953 0.21875 0.46875 0.21875zm-0.625-1.9375c0.125-0.17578 0.26562-0.30469 0.42188-0.39062 0.16406-0.082031 0.35156-0.125 0.5625-0.125 0.36328 0 0.66406 0.14844 0.90625 0.4375 0.23828 0.29297 0.35938 0.66797 0.35938 1.125 0 0.46875-0.12109 0.85156-0.35938 1.1406-0.24219 0.29297-0.54297 0.4375-0.90625 0.4375-0.21094 0-0.39844-0.042969-0.5625-0.125-0.15625-0.082031-0.29688-0.21094-0.42188-0.39062v0.4375h-0.96875v-4.1562h0.96875z"
            id="path972" />
      </symbol>
      <symbol
         id="i"
         overflow="visible">
         <path
            d="m0.0625-2.9844h0.95312l0.8125 2.0156 0.6875-2.0156h0.95312l-1.2656 3.2656c-0.125 0.33203-0.27344 0.56641-0.4375 0.70312-0.16797 0.13281-0.39062 0.20312-0.67188 0.20312h-0.54688v-0.64062h0.29688c0.16406 0 0.28516-0.027344 0.35938-0.078125 0.070313-0.054688 0.12891-0.14062 0.17188-0.26562l0.03125-0.09375z"
            id="path975" />
      </symbol>
      <symbol
         id="e"
         overflow="visible">
         <path
            d="m0.45312-2.9844h0.96875v2.9844h-0.96875zm0-1.1719h0.96875v0.78125h-0.96875z"
            id="path978" />
      </symbol>
      <symbol
         id="h"
         overflow="visible">
         <path
            d="m2.875-2.8906v0.76562c-0.125-0.082031-0.25781-0.14453-0.39062-0.1875-0.13672-0.039062-0.27344-0.0625-0.40625-0.0625-0.27344 0-0.48047 0.078125-0.625 0.23438-0.14844 0.15625-0.21875 0.37109-0.21875 0.64062 0 0.28125 0.070313 0.5 0.21875 0.65625 0.14453 0.15625 0.35156 0.23438 0.625 0.23438 0.14453 0 0.28516-0.019531 0.42188-0.0625 0.13281-0.039063 0.25781-0.10938 0.375-0.20312v0.78125c-0.14844 0.0625-0.29688 0.10156-0.45312 0.125-0.15625 0.03125-0.3125 0.046875-0.46875 0.046875-0.54297 0-0.96484-0.13281-1.2656-0.40625-0.30469-0.28125-0.45312-0.67188-0.45312-1.1719 0-0.48828 0.14844-0.86719 0.45312-1.1406 0.30078-0.28125 0.72266-0.42188 1.2656-0.42188 0.15625 0 0.3125 0.015625 0.46875 0.046875 0.15625 0.023437 0.30469 0.0625 0.45312 0.125z"
            id="path981" />
      </symbol>
      <symbol
         id="c"
         overflow="visible">
         <path
            d="m1.875-2.375c-0.21094 0-0.37109 0.078125-0.48438 0.23438-0.10547 0.14844-0.15625 0.35938-0.15625 0.64062 0 0.29297 0.050781 0.51562 0.15625 0.67188 0.11328 0.14844 0.27344 0.21875 0.48438 0.21875 0.20703 0 0.36719-0.070313 0.48438-0.21875 0.11328-0.15625 0.17188-0.37891 0.17188-0.67188 0-0.28125-0.058594-0.49219-0.17188-0.64062-0.11719-0.15625-0.27734-0.23438-0.48438-0.23438zm0-0.6875c0.51953 0 0.92188 0.14062 1.2031 0.42188 0.28906 0.27344 0.4375 0.65234 0.4375 1.1406 0 0.5-0.14844 0.89062-0.4375 1.1719-0.28125 0.27344-0.68359 0.40625-1.2031 0.40625-0.51172 0-0.91406-0.13281-1.2031-0.40625-0.29297-0.28125-0.4375-0.67188-0.4375-1.1719 0-0.48828 0.14453-0.86719 0.4375-1.1406 0.28906-0.28125 0.69141-0.42188 1.2031-0.42188z"
            id="path984" />
      </symbol>
      <symbol
         id="g"
         overflow="visible">
         <path
            d="m3.4688-1.8281v1.8281h-0.96875v-1.3906c0-0.25781-0.007812-0.4375-0.015625-0.53125-0.011719-0.10156-0.03125-0.17578-0.0625-0.21875-0.03125-0.0625-0.085937-0.10938-0.15625-0.14062-0.0625-0.039062-0.13281-0.0625-0.20312-0.0625-0.21094 0-0.37109 0.078125-0.48438 0.23438-0.10547 0.15625-0.15625 0.37109-0.15625 0.64062v1.4688h-0.96875v-2.9844h0.96875v0.4375c0.13281-0.17578 0.28516-0.30469 0.45312-0.39062 0.16406-0.082031 0.34375-0.125 0.53125-0.125 0.34375 0 0.60156 0.10938 0.78125 0.32812 0.1875 0.21094 0.28125 0.51172 0.28125 0.90625z"
            id="path987" />
      </symbol>
      <symbol
         id="s"
         overflow="visible">
         <path
            d="m1.2188-1.5312-1.0781-1.4531h1l0.625 0.875 0.60938-0.875h1.0156l-1.0781 1.4531 1.125 1.5312h-1l-0.67188-0.9375-0.67188 0.9375h-1.0156z"
            id="path990" />
      </symbol>
      <symbol
         id="r"
         overflow="visible">
         <path
            d="m2.4219-4.1562v0.625h-0.51562c-0.13672 0-0.23438 0.027344-0.29688 0.078125-0.054687 0.054687-0.078125 0.13672-0.078125 0.25v0.21875h0.82812v0.67188h-0.82812v2.3125h-0.95312v-2.3125h-0.46875v-0.67188h0.46875v-0.21875c0-0.32031 0.085937-0.5625 0.26562-0.71875 0.1875-0.15625 0.47266-0.23438 0.85938-0.23438z"
            id="path993" />
      </symbol>
      <symbol
         id="q"
         overflow="visible">
         <path
            d="m3.2344-2.5c0.11328-0.17578 0.25391-0.3125 0.42188-0.40625 0.16406-0.10156 0.35156-0.15625 0.5625-0.15625 0.33203 0 0.58594 0.10938 0.76562 0.32812 0.1875 0.21094 0.28125 0.51172 0.28125 0.90625v1.8281h-0.96875v-1.5625c0.007813-0.019531 0.015625-0.039062 0.015625-0.0625v-0.10938c0-0.21875-0.03125-0.375-0.09375-0.46875s-0.16406-0.14062-0.29688-0.14062c-0.1875 0-0.33594 0.078125-0.4375 0.23438-0.09375 0.14844-0.14062 0.35938-0.14062 0.64062v1.4688h-0.96875v-1.5625c0-0.33203-0.03125-0.54688-0.09375-0.64062-0.054688-0.09375-0.15234-0.14062-0.29688-0.14062-0.17969 0-0.32031 0.078125-0.42188 0.23438-0.09375 0.14844-0.14062 0.35938-0.14062 0.64062v1.4688h-0.96875v-2.9844h0.96875v0.4375c0.11328-0.17578 0.24219-0.30469 0.39062-0.39062 0.15625-0.082031 0.32812-0.125 0.51562-0.125 0.20703 0 0.39062 0.054688 0.54688 0.15625 0.15625 0.09375 0.27344 0.23047 0.35938 0.40625z"
            id="path996" />
      </symbol>
      <symbol
         id="p"
         overflow="visible">
         <path
            d="m3.4688-1.8281v1.8281h-0.96875v-1.3906c0-0.25781-0.007812-0.4375-0.015625-0.53125-0.011719-0.10156-0.03125-0.17578-0.0625-0.21875-0.03125-0.0625-0.085937-0.10938-0.15625-0.14062-0.0625-0.039062-0.13281-0.0625-0.20312-0.0625-0.21094 0-0.37109 0.078125-0.48438 0.23438-0.10547 0.15625-0.15625 0.37109-0.15625 0.64062v1.4688h-0.96875v-4.1562h0.96875v1.6094c0.13281-0.17578 0.28516-0.30469 0.45312-0.39062 0.16406-0.082031 0.34375-0.125 0.53125-0.125 0.34375 0 0.60156 0.10938 0.78125 0.32812 0.1875 0.21094 0.28125 0.51172 0.28125 0.90625z"
            id="path999" />
      </symbol>
      <symbol
         id="o"
         overflow="visible">
         <path
            d="m0.5-3.9844h1.1562l1.4375 2.7344v-2.7344h0.98438v3.9844h-1.1562l-1.4375-2.7344v2.7344h-0.98438z"
            id="path1002" />
      </symbol>
      <symbol
         id="n"
         overflow="visible">
         <path
            d="m0.42188-1.1719v-1.8125h0.96875v0.29688 0.60938 0.48438c0 0.24219 0.003906 0.41797 0.015625 0.53125 0.007812 0.10547 0.03125 0.17969 0.0625 0.21875 0.039062 0.0625 0.09375 0.11719 0.15625 0.15625 0.0625 0.03125 0.13281 0.046875 0.21875 0.046875 0.19531 0 0.35156-0.078125 0.46875-0.23438 0.11328-0.15625 0.17188-0.36719 0.17188-0.64062v-1.4688h0.95312v2.9844h-0.95312v-0.4375c-0.14844 0.17969-0.30469 0.30859-0.46875 0.39062-0.15625 0.082031-0.33594 0.125-0.53125 0.125-0.34375 0-0.60938-0.10156-0.79688-0.3125-0.17969-0.21875-0.26562-0.53125-0.26562-0.9375z"
            id="path1005" />
      </symbol>
      <symbol
         id="m"
         overflow="visible">
         <path
            d="m0.5-3.9844h1.7031c0.50781 0 0.89844 0.11719 1.1719 0.34375 0.26953 0.21875 0.40625 0.53906 0.40625 0.95312 0 0.41797-0.13672 0.74219-0.40625 0.96875-0.27344 0.21875-0.66406 0.32812-1.1719 0.32812h-0.67188v1.3906h-1.0312zm1.0312 0.75v1.1094h0.5625c0.19531 0 0.34766-0.046875 0.45312-0.14062 0.11328-0.10156 0.17188-0.24219 0.17188-0.42188 0-0.17578-0.058594-0.3125-0.17188-0.40625-0.10547-0.09375-0.25781-0.14062-0.45312-0.14062z"
            id="path1008" />
      </symbol>
      <symbol
         id="l"
         overflow="visible">
         <path
            d="m0.45312-2.9844h0.96875v2.9375c0 0.39453-0.10156 0.69531-0.29688 0.90625-0.1875 0.21875-0.46484 0.32812-0.82812 0.32812h-0.48438v-0.64062h0.17188c0.17578 0 0.29688-0.042969 0.35938-0.125 0.070312-0.074219 0.10938-0.23047 0.10938-0.46875zm0-1.1719h0.96875v0.78125h-0.96875z"
            id="path1011" />
      </symbol>
   </defs>
   <g
      id="g1088">
      <path
         d="m 612.5,96.25 c 0,-2.3203 -0.92188,-4.5469 -2.5625,-6.1875 C 608.29688,88.4219 606.0703,87.5 603.75,87.5 H 96.25 c -4.832,0 -8.75,3.918 -8.75,8.75 v 507.5 c 0,2.3203 0.92188,4.5469 2.5625,6.1875 1.64062,1.6406 3.8672,2.5625 6.1875,2.5625 h 507.5 c 2.3203,0 4.5469,-0.92188 6.1875,-2.5625 1.6406,-1.64062 2.5625,-3.8672 2.5625,-6.1875 z M 595,280 h -87.5 v -17.5 c -0.0117,-9.2812 -3.7031,-18.176 -10.262,-24.738 -6.5625,-6.5586 -15.457,-10.25 -24.738,-10.262 -1.25,0 -2.4844,0.26953 -3.6211,0.78516 l -48.879,22.219 v -145.5 h 175 z M 227.5,385 c 1.25,0 2.4844,-0.26953 3.6211,-0.78516 l 54.195,-24.633 -25.246,42.918 h -155.07 v -105 h 87.5 v 52.5 c 0.0117,9.2812 3.7031,18.176 10.262,24.738 6.5625,6.5586 15.457,10.25 24.738,10.262 z m 96.25,-43.75 c -3.7344,-0.004 -7.0586,-2.375 -8.2773,-5.9062 6.7109,-8.2109 10.379,-18.488 10.379,-29.09 0,-10.605 -3.668,-20.883 -10.379,-29.09 1.2188,-3.5352 4.5391,-5.9102 8.2773,-5.9141 h 52.5 c 3.7344,0.004 7.0586,2.375 8.2773,5.9062 -6.7148,8.207 -10.379,18.488 -10.379,29.09 0,10.605 3.6641,20.883 10.379,29.09 -1.2188,3.5352 -4.5391,5.9102 -8.2773,5.9141 z m 76.188,-14.938 c -2.5352,-2.5312 -4.5703,-5.5195 -5.9922,-8.8086 l 58.934,14.734 c 4.6719,1.1328 9.3828,-1.7188 10.551,-6.3828 1.1641,-4.6641 -1.6523,-9.3945 -6.3086,-10.594 l -36.043,-9.0117 36.047,-9.0117 h -0.004 c 4.6562,-1.1992 7.4727,-5.9297 6.3086,-10.594 -1.168,-4.6641 -5.8789,-7.5156 -10.551,-6.3828 l -58.934,14.734 c 1.4219,-3.2891 3.457,-6.2773 5.9922,-8.8086 1.6406,-1.6406 2.5625,-3.8672 2.5625,-6.1875 0,-0.76562 -0.0391,-1.5234 -0.10938,-2.2734 l 71.816,-32.645 c 4.3242,0.42969 8.332,2.4492 11.25,5.668 2.918,3.2188 4.5391,7.4062 4.543,11.75 v 87.5 c -0.004,4.3438 -1.625,8.5312 -4.5391,11.75 -2.918,3.2148 -6.9258,5.2383 -11.25,5.668 l -71.82,-32.645 c 0.0664,-0.75 0.10938,-1.5078 0.10938,-2.2734 0,-2.3203 -0.92188,-4.5469 -2.5625,-6.1875 z M 395.1411,261.8 c -4.9375,-5.1445 -11.758,-8.0547 -18.891,-8.0508 h -52.5 c -7.1328,-0.004 -13.953,2.9062 -18.891,8.0508 l -7.3594,-3.3477 v -153.45 h 105 v 153.45 z m -97.531,15.926 c -0.0664,0.75 -0.10938,1.5078 -0.10938,2.2734 0,2.3203 0.92188,4.5469 2.5625,6.1875 2.5352,2.5312 4.5703,5.5195 5.9922,8.8086 l -58.934,-14.734 c -4.6719,-1.1328 -9.3828,1.7188 -10.551,6.3828 -1.1641,4.6641 1.6523,9.3945 6.3086,10.594 l 36.043,9.0117 -36.043,9.0117 c -2.2656,0.55078 -4.2188,1.9805 -5.4258,3.9727 -1.207,1.9961 -1.5664,4.3906 -1.0039,6.6523 0.56641,2.2617 2.0117,4.2031 4.0156,5.3984 2.0039,1.1914 4.3984,1.5352 6.6562,0.95312 l 58.934,-14.734 c -1.4219,3.2891 -3.457,6.2773 -5.9922,8.8086 -1.6406,1.6406 -2.5625,3.8672 -2.5625,6.1875 0,0.76562 0.0391,1.5234 0.10938,2.2734 l -71.816,32.645 c -4.3242,-0.42969 -8.332,-2.4492 -11.25,-5.668 -2.918,-3.2188 -4.5391,-7.4062 -4.543,-11.75 v -87.5 c 0.004,-4.3438 1.625,-8.5312 4.5391,-11.746 2.918,-3.2188 6.9258,-5.2383 11.25,-5.6719 z m 11.242,76.367 c 4.375,3.0352 9.5742,4.6602 14.898,4.6562 h 14.109 l -42.645,127.93 -16.461,-27.434 c -2.3516,-3.9219 -7.3281,-5.3711 -11.418,-3.3242 l -26.055,13.023 z m -11.352,162.16 c 3.7656,0 7.1094,-2.4102 8.3008,-5.9844 l 44.199,-132.59 44.199,132.59 c 1.1914,3.5742 4.5352,5.9844 8.3008,5.9844 v 78.75 h -105 z m 107.29,-29.566 -42.645,-127.93 h 14.109 c 5.3281,0.004 10.527,-1.6211 14.902,-4.6562 l 67.566,114.86 -26.051,-13.027 v 0.004 c -4.0898,-2.0469 -9.0664,-0.59766 -11.418,3.3242 z m 9.8984,-127.1 54.195,24.633 c 1.1367,0.51562 2.3711,0.78516 3.6211,0.78516 9.2812,-0.0117 18.176,-3.7031 24.738,-10.262 6.5586,-6.5625 10.25,-15.457 10.262,-24.738 v -52.5 h 87.5 v 105 h -155.07 z m -134.68,-254.58 v 145.5 l -48.879,-22.219 c -1.1367,-0.51562 -2.3711,-0.78516 -3.6211,-0.78516 -9.2812,0.0117 -18.176,3.7031 -24.738,10.262 -6.5586,6.5625 -10.25,15.457 -10.262,24.738 v 17.5 h -87.5 v -175 z m -175,315 h 144.77 l -38.57,65.562 c -1.9648,3.3438 -1.4961,7.5781 1.1484,10.41 2.6445,2.832 6.8398,3.5859 10.309,1.8516 l 45.254,-22.625 12.086,20.141 v 99.66 h -175 z m 315,175 v -99.66 l 12.086,-20.141 45.25,22.625 c 3.4688,1.7383 7.6641,0.98828 10.312,-1.8477 2.6484,-2.832 3.1172,-7.0703 1.1484,-10.414 l -38.57,-65.562 h 144.77 v 175 z"
         id="path1016" />
   </g>
</svg>